<svg width="24" height="24" viewBox="0 0 24 24" fill="none" xmlns="http://www.w3.org/2000/svg">
<path fill-rule="evenodd" clip-rule="evenodd" d="M17.0107 14.6013C17.4247 14.6013 17.7607 14.2653 17.7607 13.8513V11.9993C17.7607 11.5853 17.4247 11.2493 17.0107 11.2493H11.3187C10.9947 10.1823 10.0127 9.39827 8.8407 9.39827C7.4067 9.39827 6.2397 10.5653 6.2397 11.9993C6.2397 13.4343 7.4067 14.6013 8.8407 14.6013C10.0127 14.6013 10.9947 13.8173 11.3187 12.7493H13.4307V13.8513C13.4307 14.2653 13.7667 14.6013 14.1807 14.6013C14.5947 14.6013 14.9307 14.2653 14.9307 13.8513V12.7493H16.2607V13.8513C16.2607 14.2653 16.5967 14.6013 17.0107 14.6013ZM7.6657 1.99927H16.3347C19.7227 1.99927 21.9997 4.37727 21.9997 7.91627V16.0833C21.9997 19.6223 19.7227 21.9993 16.3337 21.9993H7.6657C4.2767 21.9993 1.9997 19.6223 1.9997 16.0833V7.91627C1.9997 4.37727 4.2767 1.99927 7.6657 1.99927ZM7.7388 12.0002C7.7388 11.3922 8.2338 10.8982 8.8408 10.8982C9.4478 10.8982 9.9428 11.3922 9.9428 12.0002C9.9428 12.6072 9.4478 13.1012 8.8408 13.1012C8.2338 13.1012 7.7388 12.6072 7.7388 12.0002Z" fill="#130F26"/>
</svg>
